# xmcd
#
# Track frame offsets:
#	193
#	21353
#	42163
#	62376
#	83999
#	105159
#	125928
#	147534
#	166256
#	194643
#	215999
#	242940
#	263779
#	299485
#	328530
#
# Disc length: 4739 seconds
# Revision: 0
# Processed by: cddbd v1.5.2PL0 Copyright (c) Steve Scherf et al.
# Submitted via: dBpowerAMP V12.0
#
DISCID=ec12810f
DTITLE=LaToya Jackson - Heart Don't Lie - Expanded
DYEAR=1984
DGENRE=Funk - Soul
TTITLE0=Think Twice
TTITLE1=Heart Don't Lie
TTITLE2=Bet'cha Gonna Need My Lovin'
TTITLE3=Private Joy
TTITLE4=Hot Potato
TTITLE5=I Like Everything You're Doin'
TTITLE6=Frustration
TTITLE7=Without You
TTITLE8=Bet'cha Gonna Need My Lovin' (Long Vers)
TTITLE9=Bet'cha Gonna Need My Lovin' (Instr)
TTITLE10=Heart Don't Lie (Club Vers)
TTITLE11=Heart Don't Lie (Dub Vers)
TTITLE12=Private Joy (Ext Dance Mix)
TTITLE13=Hot Potato (12-Inch Vers)
TTITLE14=Hot Potato (Dub Vers)
EXTD=
EXTT0=
EXTT1=
EXTT2=
EXTT3=
EXTT4=
EXTT5=
EXTT6=
EXTT7=
EXTT8=
EXTT9=
EXTT10=
EXTT11=
EXTT12=
EXTT13=
EXTT14=
PLAYORDER=
